<?xml version="1.0" encoding="UTF-8" standalone="no"?>
<!-- Created with Inkscape (http://www.inkscape.org/) -->

<svg
   xmlns:dc="http://purl.org/dc/elements/1.1/"
   xmlns:cc="http://creativecommons.org/ns#"
   xmlns:rdf="http://www.w3.org/1999/02/22-rdf-syntax-ns#"
   xmlns:svg="http://www.w3.org/2000/svg"
   xmlns="http://www.w3.org/2000/svg"
   xmlns:sodipodi="http://sodipodi.sourceforge.net/DTD/sodipodi-0.dtd"
   xmlns:inkscape="http://www.inkscape.org/namespaces/inkscape"
   width="16.414814mm"
   height="10.677938mm"
   viewBox="0 0 16.414814 10.677938"
   version="1.1"
   id="svg8"
   inkscape:version="0.92.4 (5da689c313, 2019-01-14)"
   sodipodi:docname="Stars.svg">
  <defs
     id="defs2" />
  <sodipodi:namedview
     id="base"
     pagecolor="#ffffff"
     bordercolor="#666666"
     borderopacity="1.0"
     inkscape:pageopacity="0.0"
     inkscape:pageshadow="2"
     inkscape:zoom="1.2405942"
     inkscape:cx="4.6775187"
     inkscape:cy="-146.5804"
     inkscape:document-units="mm"
     inkscape:current-layer="layer1"
     showgrid="false"
     fit-margin-top="0"
     fit-margin-left="0"
     fit-margin-right="0"
     fit-margin-bottom="0"
     inkscape:window-width="1049"
     inkscape:window-height="696"
     inkscape:window-x="309"
     inkscape:window-y="0"
     inkscape:window-maximized="0" />
  <metadata
     id="metadata5">
    <rdf:RDF>
      <cc:Work
         rdf:about="">
        <dc:format>image/svg+xml</dc:format>
        <dc:type
           rdf:resource="http://purl.org/dc/dcmitype/StillImage" />
        <dc:title></dc:title>
      </cc:Work>
    </rdf:RDF>
  </metadata>
  <g
     inkscape:label="Layer 1"
     inkscape:groupmode="layer"
     id="layer1"
     transform="translate(-119.73681,-77.895003)">
    <path
       id="path32-0"
       transform="matrix(0.26458333,0,0,0.26458333,42.012454,65.96158)"
       style="fill:#000000;stroke-width:0.10219783"
       d="m 300.20898,45.103516 0.002,0.0039 c -0.17877,0.0189 -0.21883,0.187841 -0.31446,0.77539 -0.17801,1.09375 -0.64886,2.68019 -0.85742,2.888672 -0.0635,0.0635 -0.11523,0.239962 -0.11523,0.390625 0,0.150426 -0.0723,0.330254 -0.1543,0.400391 -0.0843,0.06988 -0.15234,0.09996 -0.15234,0.06836 0,-0.03402 -0.38004,0.07988 -0.84375,0.25 -0.92338,0.339024 -2.25448,0.701236 -2.58594,0.703125 -0.11565,6.81e-4 -0.2978,0.06229 -0.40234,0.138672 -0.1047,0.07631 -0.27821,0.114878 -0.38672,0.08789 -0.13266,-0.03402 -0.27666,0.045 -0.44141,0.244141 -0.15647,0.188975 -0.22296,0.369224 -0.18555,0.5 0.034,0.112628 0.0835,0.320577 0.11524,0.460937 0.0533,0.236976 0.57292,0.800972 0.76367,0.830078 0.1818,0.02646 0.24491,0.04799 0.44141,0.152344 0.11225,0.0593 0.5378,0.213671 0.94531,0.341797 0.40758,0.128126 0.74023,0.25599 0.74023,0.283203 0,0.06501 -0.44441,0.620375 -1.02929,1.285156 -0.25701,0.292158 -0.59754,0.759974 -0.75586,1.041016 -0.15836,0.280819 -0.35908,0.591698 -0.44531,0.691406 -0.11906,0.139087 -0.13806,0.210892 -0.0391,0.302734 0.0661,0.0661 0.11914,0.200221 0.11914,0.298829 0,0.103558 0.18822,0.289248 0.44141,0.4375 0.38993,0.22866 0.4824,0.243996 0.83594,0.146484 0.39685,-0.107906 1.62182,-0.643457 2.30078,-1.003906 0.19653,-0.104315 0.58809,-0.311813 0.86914,-0.460938 0.2812,-0.148913 0.82609,-0.405499 1.21289,-0.568359 0.79419,-0.334488 0.68475,-0.357543 1.85156,0.414062 0.33525,0.222992 0.68318,0.436916 0.76758,0.476563 0.0843,0.03968 0.44885,0.257766 0.81055,0.484375 0.56326,0.35263 0.75669,0.416148 1.34179,0.449219 0.61418,0.03402 0.6979,0.01511 0.84375,-0.191407 0.10961,-0.156472 0.13497,-0.28581 0.0703,-0.402343 -0.0495,-0.09449 -0.0661,-0.274809 -0.0332,-0.400391 0.0378,-0.142488 -0.0151,-0.33082 -0.13867,-0.501953 -0.24227,-0.33411 -0.38585,-0.71282 -0.55469,-1.449219 -0.071,-0.309165 -0.17692,-0.625022 -0.23437,-0.701172 -0.0782,-0.103937 -0.0149,-0.209878 0.25,-0.429687 0.19427,-0.161386 0.39015,-0.295364 0.43555,-0.296875 0.0453,-10e-4 0.36322,-0.198536 0.70507,-0.4375 0.34205,-0.238867 0.80979,-0.543562 1.04102,-0.677735 0.23131,-0.134173 0.74129,-0.482968 1.13476,-0.77539 0.39172,-0.292536 0.84339,-0.615027 0.99805,-0.714844 0.35603,-0.228851 0.33256,-0.374779 -0.0234,-0.800781 -0.39526,-0.45021 -1.08738,-0.611811 -2.3164,-0.539063 -0.4986,0.03024 -1.47081,0.08034 -2.16016,0.111328 l -1.2539,0.05664 -0.10157,-0.271485 c -0.0915,-0.240754 -0.77694,-1.344496 -0.91406,-1.472656 -0.18368,-0.17159 -0.82031,-1.216606 -0.82031,-1.345703 0,-0.08542 -0.092,-0.237355 -0.20313,-0.337891 -0.11074,-0.100534 -0.2277,-0.269929 -0.26172,-0.375 -0.034,-0.105069 -0.13428,-0.191406 -0.2246,-0.191406 -0.09,0 -0.2354,-0.06161 -0.32422,-0.138672 -0.0888,-0.0771 -0.32957,-0.170747 -0.53321,-0.207031 -0.0941,-0.01874 -0.17095,-0.02699 -0.23047,-0.02344 z m 47.11524,1.246093 c -0.27742,0.0189 -0.46875,0.1244 -0.46875,0.28125 0,0.06988 -0.1852,0.370848 -0.41016,0.669922 -0.22488,0.299339 -0.4082,0.593572 -0.4082,0.652344 0,0.153827 -0.54061,1.244526 -0.63672,1.285156 -0.0446,0.0189 -0.0801,0.09301 -0.0801,0.164063 0,0.07102 -0.0795,0.199802 -0.17773,0.287109 -0.16214,0.144378 -0.24985,0.140539 -0.9375,-0.0332 -0.417,-0.106583 -0.82919,-0.254008 -0.91797,-0.328125 -0.40044,-0.332976 -2.00962,-1.011423 -2.52149,-1.064453 l -0.54492,-0.05664 -0.17578,0.373047 c -0.16743,0.353008 -0.19458,0.397809 0.008,0.957031 0.10092,0.32315 0.29556,0.841271 0.43555,1.150391 0.47762,1.056038 0.54102,1.206546 0.54102,1.285156 0,0.0435 0.0713,0.158285 0.1582,0.253906 0.14513,0.160252 0.1224,0.195024 -0.28125,0.431641 -0.24151,0.141354 -0.52769,0.352669 -0.63477,0.470703 -0.10696,0.118299 -0.24635,0.216797 -0.3125,0.216797 -0.0658,0 -0.23112,0.117782 -0.36718,0.263672 -0.13607,0.14589 -0.43141,0.360075 -0.65625,0.474609 -0.718,0.365481 -1.149,0.768374 -1.25782,1.177735 -0.24037,0.905011 -0.12811,0.992481 1.12696,0.902343 0.51821,-0.0378 1.03453,-0.0859 1.14843,-0.109374 0.10999,-0.02268 0.57571,-0.07101 1.0254,-0.103516 0.44965,-0.03402 1.25509,-0.120415 1.78906,-0.19336 0.53401,-0.07291 1.02105,-0.11447 1.08398,-0.0918 0.0703,0.02646 0.1429,0.532709 0.1875,1.318359 0.0439,0.764598 0.13025,1.384629 0.2168,1.550781 0.0794,0.152315 0.14415,0.352405 0.14453,0.44336 6.4e-4,0.245291 0.39806,0.703125 0.60938,0.703125 0.48037,0 1.95099,-1.189261 2.72265,-2.199219 0.21014,-0.275528 0.35793,-0.3538 0.83789,-0.435547 0.69748,-0.119055 3.07729,-0.05576 3.24805,0.08594 0.0661,0.05522 0.61004,0.08978 1.20898,0.07617 1.16905,-0.02646 1.21724,-0.04569 1.62891,-0.699218 0.15534,-0.245292 0.15605,-0.273337 -0.0723,-0.511719 -0.26759,-0.284977 -2.10353,-1.802893 -2.39062,-1.976563 -0.63768,-0.38567 -0.84119,-0.531217 -0.8418,-0.603515 -6.4e-4,-0.104315 0.51253,-0.582484 0.59961,-0.558594 0.1304,0.03402 0.58062,-0.260066 0.88086,-0.578125 0.16857,-0.178394 0.51458,-0.483467 0.76758,-0.677734 1.11806,-0.858562 1.96841,-1.714842 2.15625,-2.167969 0.15798,-0.381623 -0.11943,-0.84191 -0.45313,-0.751953 -0.1217,0.03402 -0.75007,0.107848 -1.39648,0.166015 -1.15208,0.103937 -1.91647,0.189773 -3.69727,0.416016 -0.48854,0.06198 -0.93333,0.08569 -0.98632,0.05273 -0.0529,-0.03402 -0.12867,-0.277226 -0.16797,-0.544921 -0.0397,-0.267591 -0.14398,-0.569248 -0.23242,-0.667969 -0.0892,-0.09861 -0.13084,-0.207038 -0.0937,-0.242188 0.034,-0.03402 0.007,-0.160242 -0.0605,-0.279297 -0.0673,-0.119055 -0.12878,-0.294463 -0.13672,-0.388672 -0.0265,-0.349983 -0.48617,-0.771117 -0.9043,-0.830078 -0.10734,-0.01512 -0.20818,-0.0194 -0.30078,-0.01563 z m 0.11523,1.695313 c 0.0412,-0.0079 0.0795,-0.0014 0.10743,0.0293 0.0265,0.02646 0.0696,0.271331 0.0957,0.541015 0.0265,0.269859 0.0717,0.558251 0.10156,0.642578 0.0302,0.08432 0.0702,0.337816 0.0898,0.5625 0.0503,0.571269 0.12521,0.888925 0.23633,1 0.17953,0.179528 0.77066,0.243802 1.08399,0.117188 0.16856,-0.06799 0.67535,-0.179952 1.125,-0.246094 0.44969,-0.06648 0.97917,-0.181844 1.17578,-0.257812 0.44012,-0.169701 1.45133,-0.265453 1.63086,-0.154297 0.16327,0.100913 0.0485,0.308594 -0.16992,0.308594 -0.0885,0 -0.25853,0.101901 -0.37891,0.228515 -0.27553,0.288756 -1.52654,1.390524 -1.7832,1.570313 -0.10583,0.07412 -0.26798,0.286258 -0.36133,0.470703 -0.093,0.183118 -0.22437,0.408359 -0.28711,0.498047 -0.1988,0.283464 0.27477,1.061288 0.88086,1.449219 0.68598,0.438987 0.92373,0.681774 0.79492,0.810546 -0.0673,0.06731 -0.18501,0.05645 -0.34375,-0.02734 -0.16441,-0.0881 -0.67942,-0.125062 -1.62109,-0.115235 -1.81104,0.0189 -2.08068,0.07071 -2.42579,0.457032 -0.15457,0.173101 -0.40784,0.447939 -0.5625,0.611328 -0.15457,0.163275 -0.28125,0.320885 -0.28124,0.349609 0,0.0816 -0.91808,0.953125 -1.00391,0.953125 -0.042,0 -0.12993,-0.558819 -0.19531,-1.242188 -0.065,-0.683341 -0.16729,-1.272759 -0.22852,-1.310546 -0.0624,-0.0378 -0.092,-0.138373 -0.0527,-0.222657 0.12585,-0.328441 -0.12245,-0.662688 -0.58789,-0.792968 -0.3854,-0.107717 -0.6227,-0.09586 -1.63868,0.08594 -0.65344,0.117165 -1.28331,0.212891 -1.39843,0.212891 -0.35339,0 -0.23269,-0.179188 0.35351,-0.529297 0.30917,-0.184819 0.5625,-0.387465 0.5625,-0.449219 0,-0.06161 0.1727,-0.249866 0.38477,-0.419922 0.21165,-0.170078 0.47543,-0.475987 0.58398,-0.677734 l 0.19727,-0.365235 -0.29688,-0.234374 c -0.16252,-0.12926 -0.38461,-0.259961 -0.49414,-0.289063 -0.12548,-0.03402 -0.21119,-0.158553 -0.23047,-0.34375 -0.0189,-0.159496 -0.10871,-0.378284 -0.20507,-0.484375 -0.14741,-0.16252 -0.14734,-0.191406 -0.0215,-0.191406 0.24038,0 0.73576,0.275189 1.00195,0.558594 0.13342,0.142109 0.28876,0.259387 0.34961,0.259765 0.0605,2.61e-4 0.28612,0.160634 0.5,0.355469 0.29027,0.266457 0.47854,0.359375 0.7461,0.359375 0.48268,0 0.78118,-0.168414 0.70703,-0.402344 -0.034,-0.111874 0.10173,-0.469879 0.35156,-0.910156 0.22602,-0.399232 0.41211,-0.790119 0.41211,-0.867188 0,-0.07752 0.0951,-0.222171 0.20508,-0.324218 0.11263,-0.10167 0.2059,-0.260035 0.20703,-0.34961 0.001,-0.08961 0.0928,-0.277646 0.20312,-0.417969 0.10999,-0.140597 0.20004,-0.354065 0.20118,-0.474609 9.4e-4,-0.151181 0.15337,-0.30895 0.27734,-0.330078 z m -46.29687,0.318359 c 0.068,-0.02079 0.29667,0.245593 0.50976,0.589844 0.58114,0.93789 1.41063,1.891615 1.76954,2.041016 0.22789,0.09449 0.62315,0.110207 1.38476,0.07227 0.5867,-0.03402 1.06637,-0.02192 1.06641,0.02344 0,0.04649 -0.12667,0.166627 -0.28125,0.267578 -0.15459,0.100006 -0.34507,0.247936 -0.42383,0.326172 -0.17764,0.176882 -1.21329,0.967958 -1.40235,1.072265 -0.0771,0.04229 -0.22009,0.116441 -0.31835,0.164063 -0.35037,0.168 -0.3744,0.720511 -0.0899,1.53125 0.1474,0.408869 0.26758,0.787006 0.26758,0.839844 0,0.172346 -0.19123,0.103648 -0.5332,-0.195313 -0.18444,-0.161386 -0.57827,-0.421582 -0.875,-0.576172 -0.2967,-0.154582 -0.58842,-0.372134 -0.64844,-0.484375 -0.0941,-0.176126 -0.17422,-0.196498 -0.58398,-0.138672 -0.26004,0.0378 -0.69501,0.09602 -0.96094,0.128907 -0.26608,0.03402 -0.53544,0.122116 -0.59961,0.199218 -0.0643,0.0771 -0.16439,0.142579 -0.22071,0.142579 -0.0582,0 -0.24985,0.105959 -0.42382,0.238281 -0.33525,0.25474 -0.91851,0.578125 -1.04492,0.578125 -0.0416,0 0.0149,-0.08189 0.12304,-0.183594 0.10885,-0.101669 0.31823,-0.331011 0.4668,-0.507812 0.38381,-0.456299 0.89689,-0.739827 1.33789,-0.740235 0.83233,-8.39e-4 0.64218,-0.830112 -0.2168,-0.945312 -0.21241,-0.03024 -0.56507,-0.164404 -0.78515,-0.302735 -0.38347,-0.241512 -0.71712,-0.337173 -1.54688,-0.443359 -0.20901,-0.02646 -0.41772,-0.0875 -0.46289,-0.132813 -0.11263,-0.11263 0.14968,-0.213051 1.86523,-0.722656 1.95432,-0.580652 1.94044,-0.575878 1.94532,-0.847656 0.003,-0.127748 0.0755,-0.417738 0.16015,-0.642578 0.085,-0.224882 0.21045,-0.610796 0.27735,-0.859375 0.0673,-0.248693 0.17686,-0.470229 0.24414,-0.492188 z m 13.66601,21.597657 c -0.26003,0.0378 -0.42134,0.211881 -0.5,0.535156 -0.0684,0.281575 -0.57959,1.493812 -0.83203,1.974609 -0.0782,0.149291 -0.14258,0.344654 -0.14258,0.433594 0,0.195779 -0.54544,1.116256 -0.92578,1.560547 -0.15156,0.17726 -0.29284,0.362568 -0.3125,0.410156 -0.0801,0.185575 -0.70355,0.539496 -1.22656,0.699219 -0.77159,0.235464 -0.94142,0.310715 -1.43945,0.628906 -0.24189,0.154583 -0.94425,0.481574 -1.5625,0.726563 -1.85114,0.733378 -2.34359,0.951802 -2.42383,1.078124 -0.17159,0.269859 -0.0774,0.784112 0.20117,1.095704 0.26835,0.300094 0.30159,0.311599 0.73242,0.214843 0.47883,-0.107716 4.86876,-0.09316 4.97852,0.01758 0.0816,0.08391 -0.15875,0.45098 -0.55469,0.83789 -0.17272,0.168567 -0.42054,0.453633 -0.55078,0.632813 -0.13039,0.179149 -0.49107,0.661544 -0.80273,1.072265 -0.31182,0.41099 -0.63012,0.908737 -0.70704,1.105469 -0.0767,0.196535 -0.2025,0.428831 -0.27734,0.517578 -0.0748,0.0884 -0.13477,0.282668 -0.13477,0.429688 0,0.147023 -0.0456,0.295306 -0.10156,0.330078 -0.0563,0.03401 -0.10351,0.203031 -0.10351,0.375 0,0.278929 0.0265,0.307892 0.25781,0.263672 0.14173,-0.02646 0.28056,-0.01411 0.30664,0.03125 0.10431,0.168945 0.95817,-0.142223 1.7168,-0.623047 0.43956,-0.278551 0.84251,-0.50586 0.89062,-0.50586 0.0507,0 0.35867,-0.134796 0.6836,-0.298828 0.32503,-0.164409 0.72788,-0.332606 0.89648,-0.373047 0.16857,-0.04082 0.39688,-0.137047 0.50781,-0.210937 0.23811,-0.162898 0.59938,-0.17494 0.84766,-0.03906 0.0975,0.0559 0.36132,0.16225 0.58594,0.236329 0.49236,0.16214 1.92365,1.09716 2.73632,1.787109 0.43885,0.372661 0.68652,0.507557 0.97071,0.529297 1.33141,0.102047 1.93164,-0.0864 1.93164,-0.607422 0,-0.236032 -0.0716,-0.359397 -0.2832,-0.484375 -0.15308,-0.0915 -0.3636,-0.352932 -0.46485,-0.582031 -0.10167,-0.229418 -0.23445,-0.463334 -0.29492,-0.519532 -0.28347,-0.263433 -1.68164,-2.269171 -1.68164,-2.412109 0,-0.04649 -0.0925,-0.132887 -0.20508,-0.193359 -0.11263,-0.0601 -0.20508,-0.169999 -0.20508,-0.242188 0,-0.181039 0.68689,-0.613525 1.40039,-0.882812 0.32618,-0.123213 0.72991,-0.278365 0.89844,-0.34375 0.16857,-0.0658 0.56274,-0.284336 0.875,-0.486328 0.31219,-0.202205 0.97971,-0.584178 1.48242,-0.847657 0.50276,-0.263433 0.97076,-0.554264 1.04102,-0.646484 0.0703,-0.09222 0.1289,-0.339856 0.1289,-0.552735 0,-0.32466 -0.0495,-0.413919 -0.30273,-0.544921 -0.16592,-0.0858 -0.36057,-0.155872 -0.43359,-0.15625 -0.0729,-3.41e-4 -0.271,-0.07978 -0.43946,-0.175782 -0.26721,-0.151559 -0.66952,-0.174523 -3.11718,-0.183593 l -2.81055,-0.01172 -0.0937,-0.554688 c -0.0937,-0.55793 -0.10687,-1.546025 -0.0684,-3.277343 0.0227,-0.820566 -0.001,-0.955906 -0.1875,-1.154297 -0.11641,-0.123969 -0.21094,-0.297372 -0.21094,-0.384766 0,-0.103937 -0.13074,-0.178687 -0.3789,-0.21875 -0.10923,-0.0189 -0.20642,-0.0097 -0.29297,-0.0078 z m -0.45117,4.166015 c 0.11414,0.0378 0.16519,0.558085 0.11719,1.484375 -0.0151,0.302362 0.0226,0.680402 0.0898,0.837891 0.13569,0.326929 0.66423,0.613945 1.21094,0.658203 0.20334,0.01512 0.76051,0.06016 1.23828,0.09766 0.77991,0.06081 1.64944,0.198612 2.03125,0.320313 0.18369,0.05858 -0.16213,0.320843 -0.90625,0.689453 -0.81105,0.401533 -1.86005,1.096058 -2.25195,1.486328 -0.32051,0.320504 -0.34048,0.379302 -0.34766,1.09375 -0.004,0.514239 0.0342,0.771205 0.1211,0.804687 0.0703,0.02646 0.12695,0.116889 0.12695,0.201172 0,0.235465 -0.22906,0.09137 -0.48633,-0.304687 -0.12775,-0.196536 -0.51341,-0.563138 -0.85742,-0.816406 -0.60559,-0.445792 -0.63355,-0.454581 -0.87695,-0.294922 -0.81873,0.536432 -1.66211,0.895907 -1.66211,0.710937 0,-0.02646 0.25132,-0.380896 0.55859,-0.791015 0.66573,-0.88879 0.88503,-1.602835 0.58984,-1.91211 -0.0983,-0.103181 -0.49912,-0.262467 -0.89257,-0.353516 -0.39349,-0.0915 -1.02928,-0.200234 -1.41211,-0.242187 -0.55745,-0.06119 -0.66982,-0.103031 -0.56641,-0.205078 0.0711,-0.0703 0.23156,-0.126953 0.35742,-0.126953 0.12624,0 0.25297,-0.04101 0.28321,-0.08984 0.0506,-0.0816 0.62038,-0.188147 1.48242,-0.277344 0.192,-0.0189 0.39698,-0.08238 0.45508,-0.140625 0.0582,-0.0582 0.18613,-0.105469 0.28515,-0.105469 0.27818,0 0.69922,-0.518868 0.69922,-0.861328 0,-0.165165 0.0456,-0.44067 0.10156,-0.613281 0.0559,-0.172724 0.16591,-0.520649 0.24414,-0.769531 0.10848,-0.347339 0.19917,-0.502016 0.26758,-0.480469 z"
       inkscape:connector-curvature="0" />
  </g>
</svg>
